<?xml version="1.0" encoding="iso-8859-1"?>
<!-- Uploaded to: SVG Repo, www.svgrepo.com, Generator: SVG Repo Mixer Tools -->
<svg version="1.1" id="Layer_1" xmlns="http://www.w3.org/2000/svg" xmlns:xlink="http://www.w3.org/1999/xlink" 
	 viewBox="0 0 509.287 509.287" xml:space="preserve">
<circle style="fill:#FBD303;" cx="254.644" cy="254.644" r="254.644"/>
<path style="fill:#393D47;" d="M427.571,417.06l-10.511,10.511c-9.833,9.833-25.43,10.511-35.942,1.695L158.686,243.454
	l84.768-84.768l185.473,222.093C437.743,391.629,437.065,407.226,427.571,417.06z"/>
<circle style="fill:#646B79;" cx="163.433" cy="163.433" r="105.113"/>
<g>
	<path style="fill:#4F5565;" d="M223.788,83.412L83.412,223.788c-5.425,5.425-5.425,13.902,0,19.327l0,0
		c5.425,5.425,13.902,5.425,19.327,0l140.376-140.376c5.425-5.425,5.425-13.902,0-19.327l0,0
		C237.69,78.326,229.213,78.326,223.788,83.412z"/>
	<path style="fill:#4F5565;" d="M275.327,266.172l-8.816,8.816c-3.73,3.73-3.73,10.172,0,13.902l23.396,23.396
		c3.73,3.73,10.172,3.73,13.902,0l8.816-8.816c3.73-3.73,3.73-10.172,0-13.902l-23.396-23.396
		C285.499,262.442,279.057,262.442,275.327,266.172z"/>
</g>
<rect x="283.012" y="284.532" transform="matrix(-0.7071 0.7071 -0.7071 -0.7071 712.3072 295.0387)" style="fill:#FBD303;" width="24.074" height="21.022"/>
</svg>